<?xml version="1.0" encoding="UTF-8" standalone="no"?>
<svg
   xmlns:dc="http://purl.org/dc/elements/1.1/"
   xmlns:cc="http://creativecommons.org/ns#"
   xmlns:rdf="http://www.w3.org/1999/02/22-rdf-syntax-ns#"
   xmlns:svg="http://www.w3.org/2000/svg"
   xmlns="http://www.w3.org/2000/svg"
   xmlns:sodipodi="http://sodipodi.sourceforge.net/DTD/sodipodi-0.dtd"
   xmlns:inkscape="http://www.inkscape.org/namespaces/inkscape"
   version="1.0"
   width="1280.000000pt"
   height="1280.000000pt"
   viewBox="0 0 1280.000000 1280.000000"
   preserveAspectRatio="xMidYMid meet"
   id="svg850"
   sodipodi:docname="대타로고.svg"
   inkscape:version="0.92.4 (5da689c313, 2019-01-14)">
  <metadata
     id="metadata856">
    <rdf:RDF>
      <cc:Work
         rdf:about="">
        <dc:format>image/svg+xml</dc:format>
        <dc:type
           rdf:resource="http://purl.org/dc/dcmitype/StillImage" />
      </cc:Work>
    </rdf:RDF>
  </metadata>
  <defs
     id="defs854">
    <inkscape:path-effect
       effect="bspline"
       id="path-effect1440"
       is_visible="true"
       weight="33.333333"
       steps="2"
       helper_size="0"
       apply_no_weight="true"
       apply_with_weight="true"
       only_selected="false" />
    <inkscape:path-effect
       effect="bspline"
       id="path-effect1436"
       is_visible="true"
       weight="33.333333"
       steps="2"
       helper_size="0"
       apply_no_weight="true"
       apply_with_weight="true"
       only_selected="false" />
  </defs>
  <sodipodi:namedview
     pagecolor="#ffffff"
     bordercolor="#666666"
     borderopacity="1"
     objecttolerance="10"
     gridtolerance="10"
     guidetolerance="10"
     inkscape:pageopacity="0"
     inkscape:pageshadow="2"
     inkscape:window-width="1280"
     inkscape:window-height="961"
     id="namedview852"
     showgrid="false"
     inkscape:zoom="0.39111844"
     inkscape:cx="514.66107"
     inkscape:cy="951.69761"
     inkscape:window-x="-8"
     inkscape:window-y="-8"
     inkscape:window-maximized="1"
     inkscape:current-layer="svg850" />
  <g
     transform="translate(0.000000,1280.000000) scale(0.100000,-0.100000)"
     fill="#000000"
     stroke="none"
     id="g848">
    <path
       d="M5045 12560 c-26 -10 -40 -28 -50 -60 -4 -14 -22 -43 -40 -65 -232 -286 -479 -805 -591 -1242 -15 -60 -22 -73 -39 -73 -45 -1 -89 -39 -255 -225 -304 -338 -617 -741 -831 -1070 -555 -852 -974 -1683 -1183 -2348 -156 -494 -225 -842 -316 -1592 -19 -154 -7 -136 -138 -211 -147 -84 -151 -87 -482 -328 -293 -213 -491 -367 -552 -430 -62 -63 -52 -105 56 -246 169 -218 230 -273 451 -406 355 -212 560 -330 705 -403 69 -35 130 -67 135 -71 6 -5 56 -32 113 -60 l102 -53 133 -166 c186 -234 305 -368 523 -587 298 -301 458 -441 794 -694 79 -59 87 -69 94 -112 34 -217 257 -964 311 -1040 8 -13 15 -34 15 -48 0 -15 7 -35 15 -46 8 -10 15 -28 15 -39 0 -33 55 -138 86 -166 38 -34 154 -116 229 -162 85 -52 270 -115 389 -133 159 -24 421 -1 651 57 156 40 481 178 512 219 6 8 14 26 17 40 2 14 18 55 35 92 17 36 46 110 65 164 73 211 125 356 129 361 3 2 88 -1 189 -8 308 -20 514 -6 913 62 401 68 682 137 927 230 134 50 373 161 438 203 165 106 276 184 333 237 l68 62 87 -27 c193 -58 583 -132 827 -157 145 -14 614 -6 785 14 63 8 131 12 150 10 48 -6 78 20 117 99 65 133 183 490 254 766 48 187 63 320 56 474 -7 132 -17 162 -78 219 -68 64 -302 236 -415 304 -149 91 -387 210 -492 245 -76 26 -87 32 -86 52 1 21 46 299 50 306 0 1 46 -5 100 -14 73 -12 137 -15 242 -11 135 5 144 6 177 31 74 57 268 345 350 521 92 198 161 470 171 675 7 154 -3 192 -62 232 -193 129 -576 328 -814 421 -163 64 -581 207 -606 207 -7 0 -15 4 -18 8 -3 5 99 114 227 243 243 245 339 360 491 587 206 308 307 571 358 927 8 57 13 194 13 375 -1 304 -12 426 -60 645 -13 61 -26 127 -30 147 -3 21 -17 50 -30 66 -13 16 -61 101 -106 188 -87 171 -207 358 -316 494 -37 47 -161 180 -274 295 l-207 210 -66 300 c-93 415 -123 527 -237 885 -80 250 -110 324 -142 354 l-30 29 -121 -6 c-94 -4 -150 -13 -251 -40 -164 -44 -332 -98 -460 -149 -114 -45 -491 -232 -640 -318 l-101 -58 -79 19 c-44 10 -159 32 -255 48 -399 67 -673 88 -941 70 l-177 -11 -162 122 c-89 67 -230 168 -313 223 -345 231 -735 385 -852 337z m226 -176 c136 -43 348 -153 559 -292 135 -89 426 -310 444 -336 8 -14 26 -28 38 -32 13 -4 40 -20 60 -37 44 -35 88 -39 118 -12 11 10 20 28 20 41 0 20 6 23 58 30 77 9 385 -2 552 -21 163 -18 482 -71 553 -91 29 -8 66 -16 82 -18 45 -6 373 -100 520 -150 180 -61 311 -118 590 -258 452 -227 607 -318 776 -453 106 -85 129 -107 312 -290 252 -252 386 -420 512 -638 73 -129 195 -382 195 -407 0 -9 5 -21 10 -26 15 -15 57 -241 70 -385 19 -192 8 -602 -19 -749 -11 -63 -27 -137 -34 -165 l-13 -50 -47 -3 c-57 -4 -187 49 -437 176 l-165 84 -75 -4 c-55 -3 -111 -17 -210 -51 -190 -65 -534 -161 -670 -186 -182 -35 -387 -79 -490 -106 -252 -66 -681 -148 -980 -187 -134 -17 -737 -17 -855 0 -49 8 -144 27 -210 44 -66 17 -133 31 -150 30 -59 -2 -87 -78 -42 -119 27 -25 208 -75 357 -98 145 -23 562 -31 771 -16 308 23 874 124 1209 216 47 13 132 33 190 44 309 61 381 77 560 127 107 30 255 75 329 100 165 56 226 65 273 36 131 -79 438 -217 524 -235 30 -6 54 -16 54 -22 0 -23 -129 -266 -194 -365 -155 -234 -273 -375 -512 -612 -234 -230 -417 -388 -501 -432 -58 -29 -69 -81 -27 -123 21 -21 32 -24 60 -20 35 6 129 64 192 119 18 15 37 28 42 28 17 0 92 -140 132 -243 39 -102 158 -461 158 -475 0 -5 -39 11 -87 35 -98 48 -282 97 -521 140 -125 22 -176 26 -342 26 -186 0 -259 -5 -535 -39 -480 -58 -850 -151 -1157 -291 -164 -74 -414 -206 -488 -256 -64 -43 -122 -87 -203 -153 -24 -19 -27 -18 -27 10 0 63 -127 732 -184 966 -27 112 -52 150 -100 150 -60 0 -81 -66 -51 -165 28 -92 152 -722 180 -920 9 -60 18 -121 20 -135 3 -14 9 -50 14 -80 6 -30 13 -86 16 -125 3 -38 13 -140 22 -227 8 -86 13 -168 9 -181 -8 -32 -235 -268 -335 -349 -78 -63 -224 -161 -323 -217 -86 -48 -162 -71 -239 -71 -62 0 -74 4 -126 37 -32 20 -62 42 -66 50 -4 7 -13 13 -20 13 -29 0 -448 371 -602 532 -104 110 -280 322 -383 463 -84 115 -98 128 -135 121 -41 -8 -57 -30 -57 -77 0 -30 12 -53 59 -116 202 -269 366 -459 529 -614 96 -91 402 -359 476 -417 l29 -22 -76 -153 c-72 -144 -107 -236 -107 -281 0 -29 39 -66 70 -66 37 0 65 30 85 92 24 76 145 318 159 318 6 -1 22 -7 36 -15 33 -19 188 -19 257 -1 107 29 280 125 463 259 123 90 409 376 444 444 l25 50 -31 268 -32 268 25 19 c13 11 35 29 49 41 52 45 187 145 240 179 63 40 250 139 295 155 38 15 274 120 297 133 10 6 25 10 33 10 9 0 26 6 38 14 65 42 452 131 762 175 355 51 626 69 795 52 125 -13 425 -71 529 -103 100 -30 209 -91 286 -160 79 -69 79 -70 120 -273 61 -310 58 -616 -11 -955 -31 -152 -107 -439 -155 -582 -102 -304 -260 -602 -461 -867 -76 -101 -254 -280 -438 -441 -40 -36 -115 -101 -164 -146 -83 -74 -256 -204 -271 -204 -4 0 -41 -21 -83 -47 -243 -147 -602 -271 -1032 -357 -373 -74 -595 -105 -820 -112 -155 -6 -455 8 -468 20 -2 3 16 85 41 183 54 208 84 362 126 638 45 293 51 355 51 507 0 136 0 137 -26 157 -36 28 -60 26 -95 -8 l-29 -29 0 -134 c0 -165 -9 -244 -65 -583 -46 -276 -113 -572 -164 -724 -16 -48 -32 -99 -36 -115 -6 -29 -129 -378 -180 -511 -15 -38 -33 -77 -41 -86 -37 -42 -277 -142 -443 -185 -190 -49 -488 -71 -616 -45 -204 42 -450 182 -507 288 -117 217 -367 1021 -385 1238 -3 39 -10 75 -15 82 -30 38 -99 625 -97 821 l2 146 -27 23 c-33 28 -46 29 -94 4 -58 -30 -75 -89 -37 -127 8 -9 14 -70 18 -196 3 -101 15 -257 27 -347 12 -89 19 -165 16 -168 -7 -8 -183 128 -322 249 -164 142 -503 476 -648 638 -107 119 -277 323 -378 456 -45 59 -53 64 -225 148 -185 91 -384 200 -588 321 -66 39 -176 104 -245 145 -175 103 -231 142 -311 217 -80 76 -166 188 -179 235 -9 28 -7 36 13 53 51 47 233 188 407 314 102 74 222 162 268 195 93 69 311 205 328 206 7 0 13 -57 17 -167 9 -220 32 -435 52 -478 46 -96 167 -49 137 52 -18 63 -40 372 -46 653 l-6 265 40 300 c51 385 75 518 151 820 76 302 182 636 265 834 190 450 376 820 649 1291 357 614 741 1154 1124 1580 47 52 108 120 134 150 l49 55 -6 -50 c-3 -27 -14 -117 -25 -200 -23 -178 -36 -383 -26 -413 9 -31 58 -54 87 -43 44 17 51 37 60 169 36 548 147 980 371 1442 84 172 122 240 209 370 86 128 112 156 163 180 51 23 39 24 136 -6z m4063 -233 c9 -7 44 -101 80 -210 113 -348 158 -511 231 -836 19 -88 38 -169 41 -180 6 -18 5 -18 -13 -5 -83 60 -184 126 -273 177 -153 87 -615 321 -776 393 -127 57 -536 200 -570 200 -25 0 -15 15 29 38 166 92 421 217 517 255 166 65 466 159 580 181 44 8 138 0 154 -13z m661 -5789 c231 -71 592 -217 765 -309 132 -70 368 -211 376 -225 4 -7 9 -21 11 -32 1 -12 5 -40 9 -62 13 -89 -71 -437 -147 -609 -51 -115 -174 -315 -270 -438 -43 -55 -150 -73 -313 -51 -159 20 -144 6 -138 137 8 195 -22 445 -83 682 -59 228 -214 710 -276 859 -16 37 -29 70 -29 73 0 4 7 3 95 -25z m313 -2372 c196 -78 458 -232 671 -392 57 -43 107 -78 110 -78 18 0 29 -57 24 -122 -6 -64 -4 -71 10 -65 14 5 17 -1 17 -36 0 -56 -23 -201 -50 -312 -43 -185 -177 -604 -231 -722 l-28 -63 -45 0 c-24 0 -81 -8 -127 -17 -126 -25 -688 -25 -849 0 -296 46 -630 116 -653 136 -4 4 32 43 80 87 218 198 353 354 483 556 219 343 329 600 440 1027 11 41 13 43 41 37 16 -3 65 -20 107 -36z"
       id="path842" />
    <path
       d="M6420 10081 c-131 -18 -364 -115 -495 -206 -134 -92 -245 -214 -245 -269 0 -41 26 -66 69 -66 28 0 44 11 108 79 78 84 179 159 278 208 133 66 289 113 378 113 77 0 188 -43 301 -117 227 -149 337 -245 598 -521 72 -76 93 -92 117 -92 33 0 71 39 71 74 0 36 -33 76 -200 245 -185 186 -307 286 -499 413 -188 123 -320 161 -481 139z"
       id="path844" />
    <path
       d="M5089 8487 c-180 -54 -300 -171 -371 -363 -18 -50 -22 -81 -22 -204 -1 -135 1 -150 27 -214 41 -103 93 -183 172 -262 80 -80 169 -134 294 -178 77 -27 99 -30 211 -30 105 0 134 3 184 21 71 27 177 95 211 135 82 98 163 361 150 493 -16 179 -80 318 -200 439 -90 92 -161 132 -289 165 -111 29 -263 28 -367 -2z m360 -149 c92 -28 139 -57 206 -130 81 -87 145 -235 145 -336 0 -54 -30 -181 -61 -263 -70 -181 -215 -258 -420 -223 -306 52 -518 319 -479 603 41 292 302 443 609 349z"
       id="path846" />
  </g>
  <path
     style="fill:#bcd6a7;fill-opacity:1;stroke-width:7.23163843"
     d="m 600.22599,1605.5545 c -27.94253,-14.394 -34.93124,-22.7983 -49.44282,-59.457 -24.65125,-62.2733 -43.71259,-143.9535 -49.94715,-214.0297 -4.21598,-47.3874 -7.95377,-61.4689 -16.31625,-61.4689 -8.85263,0 -10.44541,9.7257 -8.66123,52.8862 2.08322,50.3947 1.52568,52.5328 -11.83374,45.3831 -7.71098,-4.1268 -50.99987,-46.0234 -96.19753,-93.1036 -71.59761,-74.5796 -91.41458,-90.6639 -153.92435,-124.931 -66.74915,-36.5911 -112.65998,-71.803 -112.65998,-86.406 0,-6.6156 115.63848,-93.5706 124.74576,-93.80324 2.98305,-0.0759 5.46817,12.06491 5.52248,26.98016 0.14101,38.73618 7.1198,59.66098 19.89792,59.66098 9.43955,0 10.42261,-9.2889 6.64623,-62.80081 C 244.2658,799.06546 340.0171,547.67843 512.22907,327.15285 l 48.22291,-61.75172 3.61582,39.77401 c 1.9887,21.87571 6.74797,39.77401 10.57616,39.77401 6.9129,0 8.8541,-7.43986 25.44759,-97.53048 16.56589,-89.94085 66.36554,-188.119235 95.4209,-188.119235 18.68223,0 70.37852,28.938511 112.86451,63.179215 30.7308,24.76684 31.61747,24.97987 112.09042,26.93007 100.13992,2.42682 179.25102,24.27849 281.58752,77.77877 89.4085,46.74174 166.7376,122.39037 202.6742,198.26997 21.7738,45.97528 23.5132,55.12432 23.4348,123.2675 -0.043,40.48347 -2.4056,75.92728 -5.2424,78.76402 -2.8367,2.83675 -24.9739,-3.43633 -49.1938,-13.94017 l -44.036,-19.09791 -62.8119,17.98115 c -34.5466,9.88964 -103.49,26.48381 -153.2075,36.87596 -78.6041,16.43013 -102.4226,18.43869 -182.59885,15.39817 -71.79115,-2.72253 -92.20339,-1.45289 -92.20339,5.73506 0,14.24754 19.69139,19.30322 90.956,23.35257 75.90884,4.31324 151.62504,-6.92059 301.21454,-44.69046 l 99.2891,-25.06954 40.051,18.33593 40.0509,18.33593 -16.4023,30.14434 c -9.0212,16.57938 -46.802,60.5988 -83.9573,97.82091 -48.8158,48.90366 -65.3653,69.8663 -59.661,75.57062 5.7043,5.70431 10.3013,5.48686 16.5721,-0.78391 4.7728,-4.77288 12.6393,-8.67797 17.4809,-8.67797 9.4636,0 36.4209,62.7686 29.8005,69.38895 -2.1899,2.18995 -16.4902,0.50838 -31.7785,-3.73674 -35.5989,-9.88492 -132.1081,-9.98732 -187.3725,-0.19887 -64.1975,11.37074 -126.65024,33.44684 -172.17796,60.86227 -22.37158,13.47146 -40.67565,23.70153 -40.67565,22.73343 0,-7.18519 -16.76258,-92.89334 -22.43255,-114.69883 -8.56421,-32.93628 -31.919,-39.32688 -26.42838,-7.23164 1.87119,10.93786 10.9662,64.6523 20.21127,119.36547 l 16.80908,99.4784 -21.19832,22.6236 c -25.6755,27.4018 -81.17482,64.0693 -96.97409,64.0693 -17.4091,0 -102.0949,-73.3557 -137.16661,-118.8151 -30.13865,-39.0654 -51.01249,-51.2629 -51.01249,-29.8089 0,14.5848 64.37137,90.4423 107.87909,127.1286 35.68239,30.0878 36.04677,30.8123 25.6279,50.9602 -12.2263,23.643 -13.51719,40.1761 -3.61478,46.296 12.7736,5.56 13.50883,-8.5497 21.51985,-24.2526 11.30812,-22.1658 17.77967,-27.7102 28.93784,-24.7923 22.05959,5.7687 77.87204,-17.868 113.94155,-63.4276 33.50739,-42.3233 22.69693,-8.2154 33.29873,-74.5564 5.78024,-36.17 -97.45987,436.2876 29.91982,416.4521 116.4321,0.3332 217.1612,-49.5365 292.6266,-124.8976 41.7047,-41.647 60.9748,-99.5043 58.8747,-74.6104 -4.2031,49.8207 74.8284,-168.7087 58.8382,-111.0059 -22.9404,82.7829 -55.2437,125.1768 -116.7017,184.7391 -80.3965,77.9167 -149.844,123.048 -295.44571,129.3906 -95.97782,4.181 -100.79242,24.3511 -94.16991,0.5652 10.25693,-36.8393 32.42444,-155.1151 28.64801,-164.9563 -2.2421,-5.8429 -4.72949,-35.9341 -9.9469,-35.9341 -6.60444,0 -12.05746,21.502 -17.95059,70.7812 -4.65551,38.9296 -19.12407,104.5233 -32.15239,145.7637 -23.14213,73.2552 -24.37135,75.285 -53.35639,88.1065 -16.3177,7.218 -47.30963,15.0662 -68.87095,17.4404 -32.32103,3.5589 -44.91472,1.374 -71.74478,-12.4469 z m 167.1427,-879.56592 c 49.04474,-43.82147 30.34135,-130.75997 -32.59356,-151.50369 -63.06748,-20.78741 -116.95831,19.95194 -110.48999,83.52608 3.39029,33.32152 17.41398,53.55403 51.87305,74.83922 31.86657,19.6838 64.22548,17.2495 91.2105,-6.86161 z M 1014.6031,474.15024 c 13.1239,-13.12388 -85.38197,-100.25816 -125.74297,-111.22715 -19.61886,-5.33186 -34.14671,-4.25476 -59.60266,4.41895 -33.83458,11.5286 -77.16707,45.25282 -77.16707,60.05654 0,11.96254 25.83145,9.54155 36.59684,-3.42995 12.3453,-14.87518 60.41182,-39.24547 77.40545,-39.24547 18.0932,0 72.11144,35.69023 102.55758,67.76046 24.13581,25.42336 36.40923,31.21021 45.95283,21.66662 z"
     id="path1412"
     inkscape:connector-curvature="0"
     transform="scale(0.75000002)"
     sodipodi:nodetypes="csssscssscsssscssssssscccccssssssccccsscsccscsccccsscscccscsscsscssccscscccssssssssssscs" />
  <path
     style="fill:#abc28e;fill-opacity:1;stroke-width:7.23163843"
     d="m 1196.8362,196.8543 c -43.7515,-22.54321 -87.6837,-43.28145 -97.6272,-46.08497 l -18.0791,-5.09732 25.3108,-14.08477 c 26.3618,-14.66966 110.2202,-43.361251 126.7342,-43.361251 5.2275,0 14.4832,15.457631 20.5682,34.350281 17.8972,55.56731 32.4898,117.60296 27.3783,116.38991 -2.6055,-0.61832 -40.5338,-19.56867 -84.2852,-42.11188 z"
     id="path1414"
     inkscape:connector-curvature="0"
     transform="scale(0.75000002)" />
  <path
     style="fill:#abc28e;fill-opacity:1;stroke-width:7.23163843"
     d="m 1276.3842,1406.8796 c -52.3107,-11.062 -51.1596,-6.3644 -12.2552,-50.0141 36.1749,-40.5874 69.1637,-99.3931 84.905,-151.3514 10.6425,-35.1283 18.5594,-34.885 78.7061,2.4189 52.4653,32.5398 59.2587,50.3873 43.0285,113.0431 -6.2166,23.9988 -15.72,54.2103 -21.1187,67.1369 l -9.8158,23.5028 -74.4933,-0.8389 c -40.9714,-0.4613 -81.0018,-2.2152 -88.9566,-3.8973 z"
     id="path1416"
     inkscape:connector-curvature="0"
     transform="scale(0.75000002)" />
  <path
     style="fill:#abc28e;fill-opacity:1;stroke-width:7.23163843"
     d="m 1374.0113,1050.8429 c 0,-19.4421 -8.5061,-64.18785 -18.9025,-99.43505 -10.3964,-35.2472 -20.6355,-70.15124 -22.7537,-77.56454 -5.027,-17.59408 10.7973,-13.09638 90.4698,25.71406 53.3652,25.99553 59.661,31.17539 59.661,49.08622 0,26.98278 -18.3081,77.32811 -40.1579,110.42981 -15.0017,22.7272 -21.9826,27.1187 -43.1086,27.1187 h -25.2081 z"
     id="path1418"
     inkscape:connector-curvature="0"
     transform="scale(0.75000002)" />
  <text
     xml:space="preserve"
     style="font-style:normal;font-weight:normal;font-size:86.39911652px;line-height:1.25;font-family:sans-serif;letter-spacing:0px;word-spacing:0px;fill:#000000;fill-opacity:1;stroke:none;stroke-width:1.3499862"
     x="927.79846"
     y="688.73334"
     id="text1422"
     transform="scale(0.72318023,1.3827812)"><tspan
       sodipodi:role="line"
       id="tspan1420"
       x="927.79846"
       y="688.73334"
       style="font-size:86.39911652px;stroke-width:1.3499862">대타 출동!</tspan></text>
  <path
     style="fill:none;stroke:#000000;stroke-width:0.75px;stroke-linecap:butt;stroke-linejoin:miter;stroke-opacity:1"
     d="m 332.2034,305.08475 c 164.52062,-23.50294 329.0404,-47.00576 423.27755,-73.2467 94.23715,-26.24093 118.19211,-55.21964 142.14622,-84.19732"
     id="path1434"
     inkscape:connector-curvature="0"
     inkscape:path-effect="#path-effect1436"
     inkscape:original-d="m 332.2034,305.08475 c 164.52053,-23.50357 329.04031,-47.0064 493.55937,-70.50847 23.95538,-28.97912 47.91038,-57.95779 71.8644,-86.93555" />
  <path
     style="fill:none;stroke:#000000;stroke-width:0.75px;stroke-linecap:butt;stroke-linejoin:miter;stroke-opacity:1"
     d="m 366.1017,249.49153 c 113.44719,-20.79112 226.89352,-41.58208 303.05159,-61.69515 76.15806,-20.11307 115.02842,-39.54825 153.89756,-58.98282"
     id="path1438"
     inkscape:connector-curvature="0"
     inkscape:path-effect="#path-effect1440"
     inkscape:original-d="m 366.1017,249.49153 c 113.44708,-20.79171 226.89341,-41.58267 340.33899,-62.37289 38.87052,-19.43562 77.74088,-38.8708 116.61016,-58.30508" />
  <path
     style="fill:#d40000;fill-opacity:1;stroke-width:1.80790961"
     d="m 465.29113,391.63233 c 16.41755,-23.31359 42.22486,-57.90225 44.7912,-60.03213 2.20986,-1.83402 46.17351,-10.99822 52.76203,-10.99822 1.31885,0 3.16658,4.05965 4.32003,9.49153 4.69304,22.10068 13.42153,19.85716 17.90926,-4.60329 0.87499,-4.76909 1.89228,-8.95297 2.26067,-9.2975 0.36838,-0.34454 23.04267,-4.84532 50.3873,-10.00174 233.38869,-44.01044 329.30198,-70.16672 424.14588,-115.66774 l 26.3077,-12.62104 19.293,7.24251 c 23.2217,8.71735 68.6976,28.62962 69.9268,30.61846 1.4748,2.38626 -27.2993,28.1913 -43.0458,38.60421 -47.9448,31.70496 -115.1963,54.16093 -233.57673,77.99364 -91.60532,18.44226 -229.10185,40.70071 -395.93221,64.09497 -21.8757,3.06759 -41.66806,5.99866 -43.98302,6.51352 -3.77565,0.8397 -3.31912,-0.32759 4.43389,-11.33718 z"
     id="path1442"
     inkscape:connector-curvature="0"
     transform="scale(0.75000002)" />
  <path
     style="fill:#f2f2f2;stroke:#000000;stroke-width:0.75px;stroke-linecap:butt;stroke-linejoin:miter;stroke-opacity:1"
     d="m 410.36164,407.50215 -27.32548,164.91169 c 0,0 6.48779,41.77077 30.68125,41.22792 24.19345,-0.54286 23.96972,-46.02187 23.96972,-46.02187 z"
     id="path1460"
     inkscape:connector-curvature="0"
     sodipodi:nodetypes="cczcc" />
  <path
     style="fill:none;stroke:#000000;stroke-width:0.75px;stroke-linecap:butt;stroke-linejoin:miter;stroke-opacity:1"
     d="m 381.59798,229.16742 -101.63163,-65.19765 -76.70311,47.93945 -97.79646,-111.21951 -46.021869,51.7746 141.900759,86.291 80.53826,-38.35155 84.21777,49.08777"
     id="path1462"
     inkscape:connector-curvature="0" />
  <path
     style="fill:none;stroke:#000000;stroke-width:0.75px;stroke-linecap:butt;stroke-linejoin:miter;stroke-opacity:1"
     d="M 420.339,199.05085 368.17493,112.19517 398.85618,71.926043 362.42219,14.39871 391.18587,6.7283986 431.45499,77.678777 404.60891,112.19517 430.2,186.5"
     id="path1466"
     inkscape:connector-curvature="0" />
  <path
     style="fill:#d40000;fill-opacity:1;stroke-width:2.55677032"
     d="m 427.99471,295.56117 -52.14998,-30.35009 -42.45052,20.40818 c -52.03661,25.0167 -64.16078,30.36214 -66.33164,29.24505 -7.6022,-3.91198 -178.807867,-107.99305 -181.170679,-110.1391 -3.040172,-2.76127 -1.30126,-4.96179 44.041109,-55.73231 l 10.75134,-12.03843 61.06742,69.45619 c 33.58709,38.2009 62.79325,71.51003 64.90259,74.0203 3.60085,4.28527 6.95556,2.61151 54.90984,-27.39595 28.09108,-17.57803 51.84966,-31.66332 52.79687,-31.30063 4.40153,1.68536 124.95026,80.05698 124.88309,81.18949 -0.0419,0.70763 -4.35651,6.16927 -9.58789,12.13699 l -9.51159,10.85041 z"
     id="path1470"
     inkscape:connector-curvature="0"
     transform="scale(0.75000002)" />
  <path
     style="fill:#d40000;fill-opacity:1;stroke-width:2.55677032"
     d="m 522.33138,198.84919 c -14.76535,-24.74946 -27.24322,-46.01283 -27.7286,-47.25193 -0.48538,-1.2391 7.33201,-13.1816 17.37199,-26.53888 10.03997,-13.35729 18.85304,-25.845774 19.5846,-27.752186 0.73156,-1.906413 -9.14562,-19.845981 -21.94929,-39.865707 -12.80366,-20.019726 -22.94542,-36.726845 -22.53724,-37.12693 1.32549,-1.299211 33.24734,-9.163921 33.92159,-8.357393 0.35978,0.430365 10.13665,17.465408 21.72639,37.855651 11.58973,20.390243 23.17802,40.758202 25.75175,45.262131 l 4.67951,8.188964 -17.73476,22.91574 -17.73477,22.91574 13.41688,39.79739 13.41687,39.7974 -7.66941,7.57951 -7.66943,7.57952 z"
     id="path1472"
     inkscape:connector-curvature="0"
     transform="scale(0.75000002)" />
</svg>
