<?xml version="1.0" encoding="utf-8"?>
<!-- Generator: Adobe Illustrator 16.0.0, SVG Export Plug-In . SVG Version: 6.00 Build 0)  -->
<!DOCTYPE svg PUBLIC "-//W3C//DTD SVG 1.1//EN" "http://www.w3.org/Graphics/SVG/1.1/DTD/svg11.dtd">
<svg version="1.1" id="Layer_1" xmlns="http://www.w3.org/2000/svg" xmlns:xlink="http://www.w3.org/1999/xlink" x="0px" y="0px"
	 width="500px" height="500px" viewBox="0 0 500 500" enable-background="new 0 0 500 500" xml:space="preserve">
<g>
	<path fill="#F7F7E8" stroke="#CCCCCC" stroke-miterlimit="10" d="M460.286,295.773c8.832-2.936,14.87-8.719,12.151-19.594
		c-1.441-5.766-4.865-9.981-9.424-13.125c6.18-2.319,10.449-6.926,10.316-15.879c-0.105-7.082-4.473-11.573-10.703-14.384
		c5.138-3.38,8.195-8.879,6.273-16.746c-1.564-6.399-6.078-10.651-11.836-13.238c4.678-2.881,7.48-7.113,5.721-13.014
		c-1.385-4.649-6.07-8.566-11.855-11.097c3.963-4.363,5.592-10.013,2.224-16.572c-3.173-6.174-9.763-9.285-17.086-10.145
		c3.804-3.35,5.203-7.886,1.384-14.493c-4.207-7.277-13.213-11.504-22.586-12.371c1.527-3.537,1.116-7.559-2.539-11.655
		c-5.514-6.182-14.064-7.958-22.676-6.997c1.625-5.257-0.391-10.986-7.99-15.833c-5.961-3.802-12.18-4.79-18.169-3.854
		c2.798-5.102,1.917-10.845-6.085-16.216c-7.4-4.968-19.542-4.714-29.911-1.231c-1.296-4.427-4.271-8.199-9.224-10.175
		c-7.212-2.878-18.68-2.069-26.236,2.698c-4.302-7.416-11.286-12.796-19.725-12.535c-4.902,0.152-9.548,2.047-13.32,5.042
		c-6.079-6.861-17.543-10.654-25.506-9.524c-7.355,1.043-11.791,6.387-13.382,12.833c-8.407-4.232-18-6.112-25.134-3.488
		c-6.8,2.501-9.742,6.158-10.14,10.208c-6.333-3.535-13.7-4.758-21.647-2.044c-7.703,2.628-11.149,7.034-11.497,11.908
		c-7.802-2.581-16.028-2.634-22.521,1.844c-6.839,4.716-6.427,11.021-2.804,16.468c-8.998-1.088-18.253,0.954-23.851,6.808
		c-4.366,4.568-4.919,8.604-3.329,12.215c-6.787-0.528-13.277,1.074-17.51,5.966c-4.363,5.042-4.58,10.33-2.493,15.125
		c-8.027,0.364-15.774,3.267-18.821,8.484c-3.606,6.178-0.701,11.623,4.517,15.824c-7.581,0.591-14.408,3.621-17.974,10.498
		c-3.479,6.709-2.255,12.439,1.332,16.831c-6.946,1.188-12.462,4.506-14.281,11.523c-2.232,8.617,0.774,14.087,6.171,17.802
		c-4.639,2.016-8.517,5.183-11.063,10.031c-5.437,10.348-0.317,17.573,8.199,22.538c-4.07,2.461-7.223,5.977-8.897,10.918
		c-3.245,9.58,3.082,15.942,12.709,20.002c-2.786,2.809-4.866,6.17-5.904,10.129c-2.729,10.391,3.342,16.525,12.466,19.773
		c-4.122,4.283-5.962,9.564-3.637,15.781c2.938,7.855,9.247,11.628,16.962,12.928c-2.397,4.994-2.652,10.5,0.558,16.239
		c4.707,8.419,13.18,10.874,22.657,10.065c-5.467,8.854-6.966,17.881,1.118,23.85c5.342,3.945,12.438,4.759,19.859,3.45
		c-0.796,7.862,1.16,15.483,7.89,19.429c4.726,2.771,10.035,2.197,15.372-0.353c-1.213,7.921,0.348,15.335,6.817,20.288
		c7.827,5.991,16.138,4.575,23.583-0.242c1.232,7.457,5.857,13.024,15.855,13.773c5.68,0.425,11.014-1.457,15.895-4.738
		c1.99,6.229,5.741,11.192,11.809,13.325c10.973,3.856,17.987-1.302,22.8-9.767c2.736,5.342,6.536,9.309,11.641,10.729
		c9.778,2.722,17.551-1.52,23.362-8.945c8.819,11.607,30.711,12.354,39.123-1.047c6.138,6.646,13.98,10.157,23.148,6.125
		c6.238-2.744,9.543-7.979,10.868-14.286c4.604,3.789,9.659,5.634,14.942,4.05c7.414-2.225,11.121-9.077,12.236-16.832
		c7.895,4.26,16.281,5.916,23.379,2.939c8.528-3.578,9.781-11.597,7.417-20.568c9.271,3.295,18.382,3.084,25.123-4.173
		c6.19-6.661,5.837-14.457,2.163-21.841c7.47,0.351,14.162-1.904,18.707-8.594c3.426-5.044,3.246-10.15,0.877-14.932
		c9.216-1.17,16.137-5.734,15.951-16.162c-0.074-4.092-1.298-7.851-3.342-11.238c10.315-1.666,17.968-6.352,17.08-16.429
		C467.323,303.928,464.493,299.345,460.286,295.773z"/>
	<path fill="#FFFFFF" d="M194.274,257.537L194.274,257.537c-8.47,0.17-15.221,7.109-15.064,15.472
		c0.157,8.358,7.176,15.03,15.643,14.878c8.473-0.168,15.234-7.101,15.073-15.469C209.764,264.057,202.754,257.379,194.274,257.537z
		"/>
	<path fill="#00001C" d="M207.49,272.435c0.133,6.88-5.592,12.562-12.778,12.703c-7.193,0.132-13.118-5.331-13.239-12.212
		c-0.135-6.874,5.575-12.562,12.763-12.697C201.422,260.095,207.36,265.556,207.49,272.435z"/>
	<path fill="#3F2D1C" d="M203.666,269.217c0.073,3.389-2.74,6.189-6.275,6.247c-3.545,0.072-6.459-2.624-6.516-5.995
		c-0.068-3.396,2.742-6.182,6.284-6.257C200.682,263.144,203.605,265.839,203.666,269.217z"/>
	<path fill="#FFFFFF" d="M201.125,265.844c0.014,0.869-0.707,1.578-1.589,1.592c-0.911,0.022-1.654-0.662-1.675-1.524
		c-0.02-0.86,0.699-1.585,1.605-1.601C200.359,264.293,201.109,264.987,201.125,265.844z"/>
	<path fill="#FFFFFF" d="M312.734,275.828L312.734,275.828c7.268,4.34,9.676,13.709,5.381,20.896
		c-4.291,7.178-13.704,9.491-20.98,5.164c-7.272-4.343-9.693-13.715-5.389-20.892C296.047,273.816,305.457,271.496,312.734,275.828z
		"/>
	<path fill="#00001C" d="M293.85,282.219c-3.536,5.9-1.397,13.67,4.776,17.358c6.171,3.676,14.038,1.866,17.565-4.042
		c3.538-5.908,1.411-13.669-4.762-17.349C305.258,274.504,297.387,276.307,293.85,282.219z"/>
	<path fill="#3F2D1C" d="M298.77,281.316c-1.746,2.902-0.699,6.727,2.344,8.531c3.041,1.822,6.903,0.922,8.636-1.976
		c1.745-2.908,0.695-6.728-2.34-8.542C304.385,277.525,300.508,278.416,298.77,281.316z"/>
	<path fill="#FFFFFF" d="M302.653,279.646c-0.44,0.748-0.173,1.718,0.588,2.175c0.779,0.463,1.767,0.245,2.22-0.501
		c0.443-0.73,0.18-1.717-0.604-2.183C304.09,278.681,303.095,278.915,302.653,279.646z"/>
	<path fill="#FFFFFA" d="M322.654,375.521c2.615-4.44,1.867-10.492-1.955-16.095c16.186-2.487,5.757-21.948-2.865-27.309
		c14.173-0.727-8.843-22.283-12.67-25.073c-18.834-13.729-39.515-21.581-62.628-23.466c-11.313-0.922-23.94-2.814-35.114-0.664
		c-11.787,2.269-22.953,7.143-33.159,13.389c-5.571,3.411-19.688,16.233-9.442,22.133c-6.225,5.674-13.403,11.419-7.237,20.136
		c-11.903,5.072-14.37,30.577,2.138,26.353c-3.408,11.512,4.398,26.897,18.975,20.029c-3.244,11.387,13.912,16.75,21.244,11.735
		c1.506,11.616,20.06,17.253,26.776,6.956c0.886,5.768,6.718,9.774,12.174,10.621c6.839,1.061,10.405-3.026,13.794-8.152
		c-2.262,3.422,24.105,18.484,24.148-1.365c1.621,4.645,8.802,6.619,13.865,5.367c6.335-1.567,9.544-6.1,9.885-12.613
		c4.072,2.01,9.851,2.778,13.139-1.081c3.536-4.155,3.511-10.929,0.194-15.005C318.151,380.386,321.043,378.26,322.654,375.521z"/>
	<path fill="#CDB6B3" d="M201.856,347.375c-0.355-2.956,4.216-5.367,6.646-4.236c1.534,0.717,2.308-1.794,0.798-2.498
		c-4.443-2.07-10.578,2.57-10.004,7.307C199.496,349.628,202.059,349.037,201.856,347.375L201.856,347.375z"/>
	<path fill="#CDB6B3" d="M282.048,359.681c1.704-4.605-3.63-10.165-8.288-9.226c-1.664,0.337-1.082,2.894,0.575,2.559
		c2.782-0.562,6.205,3.184,5.209,5.87C278.954,360.477,281.463,361.26,282.048,359.681L282.048,359.681z"/>
	<path fill="#CDB6B3" d="M242.391,319.205c-1.199,10.156-2.401,20.313-3.602,30.47c-0.389,3.297,1.226-0.641-0.012,0.692
		c-1.577,1.693-3.405,3.133-5.326,4.412c-5.044,3.363-11.664,4.45-17.248,1.752c-6.299-3.046-7.85-9.028-9.979-15.062
		c-4.761-1.177-3.789,6.082-3.037,8.517c1.673,5.42,5.757,9.445,11.026,11.396c10.437,3.865,21.057,0.45,28.495-7.551
		c2.616-2.814,2.008-9.643,2.422-13.141c0.841-7.08,1.677-14.158,2.512-21.234C248.041,316.088,242.787,315.869,242.391,319.205z"/>
	<path fill="#CDB6B3" d="M243.006,319.278c-0.845,7.166-1.689,14.331-2.536,21.497c-0.48,4.104-2.46,9.685-0.198,13.469
		c7.682,12.854,29.214,20.467,38.32,4.3c1.637-2.907,0.798-8.28-3.01-4.782c-2.367,2.176-1.832,4.922-5.232,6.773
		c-6.063,3.305-12.537,2.875-18.285-0.969c-2.292-1.533-4.16-3.678-5.835-5.835c-0.595-0.761-1.101-1.593-1.593-2.417
		c-0.694-1.16-0.026-0.868-0.175,0.374c1.267-10.721,2.532-21.438,3.796-32.158C248.654,316.162,243.4,315.942,243.006,319.278z"/>
	<path fill="#00001C" d="M273.66,308.46c-1.139,9.659-14.555,19.147-29.509,17.39c-14.954-1.762-25.78-14.1-24.638-23.757
		c1.143-9.671,14.018-11.16,28.967-9.397C263.443,294.455,274.805,298.79,273.66,308.46z"/>
	<path fill="#E1DCCA" d="M102.124,236.671c3.81-1.366,6.702-5.195,7.968-8.884c1.59-4.644,1.174-8.854-0.406-13.494
		c-0.854-2.502-2.947-7.522-5.777-8.202c2.785,4.895,3.188,11.943,1.926,17.37c-0.592,2.544-1.813,4.874-3.745,6.655
		c-1.022,0.943-6.88,4.937-8.227,3.838c4.802,3.923,5.142,12.514,3.157,18.172c-2.477,7.063-9.263,9.424-15.723,10.689
		c3.124,10.921,0.604,18.603-13.044,18.772c-0.179,8.142-8.441,16.241-16.308,12.896c-1.536,5.393-11.314,10.315-15.231,4.999
		c0,0,3.266,6.851,10.917,7.551c0,0,5.617-1.82,7.252-6.807c0,0,14.443,1.848,16.548-11.375c0,0,20.169,0.977,17.062-20.646
		C88.492,268.206,111.81,259.602,102.124,236.671z"/>
	<path fill="#E1DCCA" d="M400.729,272.498c-3.38-2.229-5.284-6.633-5.64-10.517c-0.447-4.888,0.952-8.88,3.586-13.015
		c1.422-2.229,4.643-6.612,7.555-6.603c-3.865,4.097-5.922,10.85-5.981,16.42c-0.028,2.612,0.61,5.166,2.065,7.354
		c0.77,1.158,5.517,6.424,7.084,5.675c-5.592,2.677-7.955,10.942-7.365,16.909c0.735,7.448,6.77,11.349,12.748,14.105
		c-5.619,9.872-4.987,17.932,8.232,21.325c-1.752,7.954,4.359,17.777,12.794,16.388c0.216,5.604,8.552,12.699,13.616,8.461
		c0,0-4.793,5.885-12.393,4.753c0,0-5.028-3.096-5.437-8.327c0,0-14.47-1.622-13.388-14.969c0,0-19.827-3.821-11.692-24.096
		C406.515,306.361,385.893,292.486,400.729,272.498z"/>
</g>
</svg>
