<?xml version="1.0" encoding="utf-8"?>
<!-- Generator: Adobe Illustrator 16.0.0, SVG Export Plug-In . SVG Version: 6.00 Build 0)  -->
<!DOCTYPE svg PUBLIC "-//W3C//DTD SVG 1.1//EN" "http://www.w3.org/Graphics/SVG/1.1/DTD/svg11.dtd">
<svg version="1.1" id="Layer_1" xmlns="http://www.w3.org/2000/svg" xmlns:xlink="http://www.w3.org/1999/xlink" x="0px" y="0px"
	 width="600px" height="600px" viewBox="0 0 600 600" enable-background="new 0 0 600 600" xml:space="preserve">
<g>
	<g>
		<g>
			<g>
				<polygon fill="#40BB91" points="98.42,186.871 98.596,134.792 149.228,134.872 201.372,186.938 				"/>
			</g>
		</g>
	</g>
	<g opacity="0.6">
		<g>
			<g>
				<polygon fill="#40BB91" points="149.308,294.154 201.372,245.499 201.292,185.159 149.228,134.872 				"/>
			</g>
		</g>
	</g>
	<g>
		<g>
			<g>
				<polygon fill="#40BB91" points="52.082,245.481 52.064,297.566 149.228,297.487 201.372,245.421 				"/>
			</g>
		</g>
	</g>
	<g>
		<g>
			<polygon fill="#40BB91" points="182.775,0.08 52.145,0 0,52.066 168.823,52.146 182.775,52.143 			"/>
		</g>
	</g>
	<g opacity="0.6">
		<g>
			<g>
				<polygon fill="#40BB91" points="52.145,0.001 0.08,50.368 0,245.421 0.022,245.421 0,245.421 52.064,297.566 52.145,52.146 
					52.129,52.162 				"/>
			</g>
		</g>
	</g>
</g>
<g>
	<path fill="#39BB9A" d="M239.43,224.519v21.328h-13.212v-31v-30.827h5.526h7.858h10.276c2.85,0,5.354,0.518,7.685,1.468
		c2.332,0.95,4.49,2.418,6.39,4.404c1.9,1.986,3.281,4.231,4.231,6.563c0.95,2.332,1.381,4.922,1.381,7.771
		c0,2.159-0.259,4.145-0.777,5.958c-0.518,1.813-1.295,3.626-2.417,5.267s-2.418,3.108-4.059,4.404s-3.626,2.332-5.785,3.281
		l6.735,6.908c2.677,2.763,5.872,5.958,9.412,9.671l-3.799,3.627l-5.354,5.008l-9.412-9.93l-13.039-13.902H239.43z M239.343,211.652
		h10.448c0.95,0,1.899-0.173,2.677-0.518c0.777-0.346,1.554-0.864,2.159-1.641c0.691-0.777,1.209-1.554,1.554-2.332
		c0.346-0.777,0.518-1.641,0.518-2.59c0-0.95-0.172-1.9-0.518-2.677c-0.345-0.777-0.863-1.555-1.554-2.332
		c-0.604-0.777-1.381-1.295-2.159-1.641c-0.777-0.346-1.727-0.518-2.677-0.518h-10.448V211.652z"/>
	<path fill="#39BB9A" d="M306.527,246.106c-2.677-0.604-5.182-1.641-7.599-3.109c-2.332-1.381-4.49-3.022-6.476-4.835
		c-1.9-1.813-3.541-3.886-5.008-6.217c-0.777-1.209-1.382-2.504-1.986-3.799s-1.123-2.677-1.554-4.145
		c-0.432-1.468-0.777-2.936-0.95-4.404c-0.259-1.468-0.345-3.022-0.345-4.49c0-1.555,0.086-3.109,0.345-4.577
		c0.173-1.468,0.518-2.936,0.95-4.404s0.95-2.85,1.554-4.145c0.604-1.295,1.209-2.59,1.986-3.886
		c1.468-2.331,3.108-4.404,5.008-6.217c1.986-1.813,4.145-3.454,6.476-4.836c2.417-1.468,4.922-2.504,7.599-3.108
		c2.677-0.691,5.439-1.036,8.289-1.036s5.613,0.345,8.29,1.036s5.181,1.727,7.599,3.108c2.418,1.468,4.576,3.022,6.476,4.836
		c1.9,1.813,3.541,3.886,5.009,6.217c0.777,1.295,1.382,2.591,1.986,3.886c0.604,1.295,1.122,2.677,1.554,4.145
		s0.691,2.936,0.95,4.404s0.345,3.022,0.345,4.577c-0.086,2.849-0.518,5.612-1.122,8.203c-0.69,2.677-1.641,5.181-3.108,7.599
		c-1.382,2.332-3.022,4.49-4.836,6.476c-1.813,1.9-3.886,3.541-6.217,5.008c-1.296,0.777-2.591,1.382-3.886,1.986
		c-1.296,0.604-2.677,1.123-4.145,1.554c-1.469,0.432-2.85,0.691-4.318,0.863c-1.468,0.259-3.021,0.346-4.576,0.346
		C311.967,247.142,309.204,246.796,306.527,246.106z M310.153,196.973c-1.468,0.432-2.936,1.037-4.317,1.813
		c-1.382,0.777-2.59,1.727-3.713,2.85c-1.122,1.123-2.245,2.245-2.936,3.626l-1.123,2.245c-0.346,0.777-0.604,1.641-0.864,2.418
		c-0.259,0.777-0.432,1.641-0.604,2.504c-0.086,0.863-0.173,1.727-0.173,2.677c0,0.95,0.086,1.813,0.173,2.677
		c0.173,0.863,0.346,1.727,0.604,2.504c0.259,0.777,0.518,1.554,0.864,2.332l1.123,2.245c0.69,1.381,1.813,2.504,2.936,3.626
		c1.123,1.123,2.331,2.073,3.713,2.85c1.382,0.777,2.85,1.468,4.317,1.9s3.022,0.604,4.663,0.604c0.95,0,1.813-0.086,2.591-0.173
		c0.863-0.173,1.727-0.345,2.504-0.604c0.777-0.259,1.555-0.518,2.331-0.863c0.777-0.346,1.469-0.777,2.159-1.209
		c1.295-0.864,2.504-1.813,3.627-2.936c1.036-1.123,1.985-2.417,2.763-3.799c0.777-1.468,1.382-2.936,1.813-4.404
		c0.432-1.554,0.604-3.108,0.604-4.749c0-0.95-0.086-1.813-0.173-2.677c-0.086-0.863-0.346-1.727-0.604-2.504
		s-0.518-1.641-0.863-2.418c-0.346-0.777-0.777-1.468-1.209-2.245c-0.777-1.295-1.727-2.504-2.85-3.626
		c-1.122-1.123-2.331-2.072-3.713-2.85c-1.382-0.777-2.85-1.381-4.317-1.813c-1.468-0.432-3.022-0.604-4.663-0.604
		S311.621,196.541,310.153,196.973z"/>
	<path fill="#39BB9A" d="M372.848,245.415c-3.108-1.123-5.785-3.022-8.117-5.354c-2.331-2.331-4.059-5.181-5.181-8.548
		c-1.123-3.281-1.728-6.994-1.728-11.226v-18.133v-13.557v-4.577h13.558v36.267c0,0.95,0,1.9,0.086,2.85
		c0.087,0.864,0.259,1.641,0.432,2.418c0.173,0.777,0.346,1.381,0.604,1.986s0.519,1.209,0.777,1.641
		c0.604,0.95,1.209,1.641,1.986,2.245s1.554,1.036,2.504,1.295c0.95,0.259,1.899,0.518,2.85,0.69
		c0.949,0.086,1.986,0.173,3.022,0.173c1.813,0,3.281-0.173,4.576-0.432c1.295-0.259,2.418-0.777,3.281-1.382
		c0.863-0.604,1.555-1.295,2.159-2.072c0.604-0.777,1.122-1.641,1.381-2.59c0.173-0.518,0.346-1.036,0.432-1.641l0.26-1.641
		c0.086-0.604,0.086-1.123,0.086-1.727c0.087-0.604,0.087-1.209,0.087-1.813v-36.267h13.557v36.267
		c0,4.231-0.604,7.944-1.728,11.226c-1.122,3.368-2.85,6.217-5.181,8.548c-2.331,2.332-5.008,4.231-8.117,5.354
		c-3.194,1.209-6.735,1.727-10.793,1.727C379.583,247.142,376.043,246.624,372.848,245.415z"/>
	<path fill="#39BB9A" d="M424.921,245.76v-30.913v-30.827h23.4c1.813,0,3.627,0.259,5.268,0.691
		c1.641,0.432,3.281,1.036,4.749,1.986s2.85,1.986,4.059,3.108s2.245,2.418,3.108,3.886c0.519,0.777,0.95,1.641,1.295,2.504
		c0.433,0.777,0.691,1.641,0.95,2.59s0.519,1.813,0.69,2.763c0.087,0.95,0.173,1.9,0.173,2.85c0,1.813-0.259,3.541-0.69,5.267
		c-0.432,1.641-1.036,3.282-1.986,4.75c-0.863,1.468-1.899,2.85-3.022,4.059c-1.122,1.123-2.331,2.245-3.885,3.108l-2.418,1.295
		c-0.864,0.432-1.728,0.69-2.677,0.95c-0.95,0.259-1.813,0.518-2.764,0.691c-0.95,0.086-1.899,0.172-2.85,0.172h-10.017v21.156
		C431.656,245.76,427.166,245.76,424.921,245.76z M448.321,211.221c0.95,0,1.813-0.173,2.677-0.432
		c0.777-0.345,1.555-0.863,2.245-1.554c0.691-0.69,1.209-1.468,1.468-2.245c0.346-0.863,0.519-1.727,0.519-2.677
		s-0.173-1.899-0.519-2.677c-0.259-0.777-0.776-1.554-1.468-2.245c-0.69-0.691-1.468-1.209-2.245-1.468
		c-0.863-0.346-1.727-0.518-2.677-0.518h-10.017v13.816h4.577h5.095H448.321z"/>
	<path fill="#39BB9A" d="M494.436,245.847v-48.442H475.18v-6.735v-4.922v-1.641h51.896v13.298h-19.342v48.442H494.436z"/>
	<path fill="#39BB9A" d="M577.076,245.847v-24.523c-3.195,0.432-7.081,1.036-11.744,1.641c-4.749,0.604-10.189,1.382-16.492,2.159
		v20.724h-13.385v-30.913v-26.941v-3.886h13.385v27.632l11.829-1.641c4.663-0.604,10.104-1.382,16.407-2.159v-23.833h13.298v61.74
		H577.076z"/>
</g>
</svg>
